# xmcd
#
# Track frame offsets:
#	150
#	14435
#	26235
#	40272
#	52860
#	65355
#	78677
#	90940
#	104255
#	117067
#	128290
#	141197
#	154545
#	165697
#
# Disc length: 2379 seconds
#
# Revision: 4
# Processed by: cddbd v1.5.1PL0 Copyright (c) Steve Scherf et al.
# Submitted via: audiograbber 1.83.01
#
DISCID=a509490e
DTITLE=The Andrews Sisteres - Gold
DYEAR=1900
DGENRE=Big Band
TTITLE0=Rum and Coca Cola
TTITLE1=Sing Sing Sing
TTITLE2=Bei mir bist du schön
TTITLE3=In the Mood
TTITLE4=Don't Be That Way
TTITLE5=Don't Sit Under The Apple Tree
TTITLE6=Boogie Woogie Bugle Boy
TTITLE7=Woody Woodpecker Song
TTITLE8=House Of Blue Lights
TTITLE9=Straighten Up and Fly Right
TTITLE10=Beer Barrel Polka
TTITLE11=Down by The Ohio
TTITLE12=Elmer's Tune
TTITLE13=Daddy
EXTD=ID3G: 96
EXTT0=
EXTT1=
EXTT2=
EXTT3=
EXTT4=
EXTT5=
EXTT6=
EXTT7=
EXTT8=
EXTT9=
EXTT10=
EXTT11=
EXTT12=
EXTT13=
PLAYORDER=
